:SAMPLES-PER-SECOND 30
:FRAME-RANGE 1-2775
:FULLY-SPECIFIED
:DEGREES
261
root  -16.7773 40.0025 -66.3233 0.13649 -9.03453 -0.172989
RightUpLeg  -11.4726 -10.8318 -11.2349
RightLeg  11.8255 -14.5166 -3.29621
RightFoot  -4.46652 -0.443567 6.86887
RightToes  1.218e-010 1.26228e-014 -6.01869e-014
Spine  -5.02064 3.38546 5.51569
Spine1  5.58979 3.64882 -3.12282
HEad  2.83415 -16.7248 9.6425
LeftShoulder1  2.16388 -5.04957 -19.6777
LeftArm  12.2505 -1.67636 -58.6977
LeftForeArm  39.573 -0.133611 -15.4544
LeftHand  -0.0210426 5.60462 3.21814
RightShoulder  2.8935 6.64072 22.9895
RightArm  -8.44586 32.8289 68.3903
RightForeArm  85.3991 -5.35793 7.80452
RightHand  0.698037 -10.4206 -16.5837
LeftUpLeg  0.544865 5.35058 3.12167
LeftLeg  9.43183 2.83799 1.27219
LeftFoot  -8.92745 0.116721 -2.99792
LeftToes  5.08156e-010 -6.90346e-011 -6.33378e-011
262
root  -17.2287 39.9575 -66.0873 0.281174 -12.1303 0.0903778
RightUpLeg  -11.7257 -10.269 -12.7635
RightLeg  9.12312 -15.8078 -2.73713
RightFoot  -2.94168 -0.510981 6.677
RightToes  1.218e-010 1.26228e-014 -6.01869e-014
Spine  -5.79427 2.98246 5.12066
Spine1  5.95104 3.0927 -2.48962
HEad  4.44942 -17.1284 9.27916
LeftShoulder1  2.17638 -5.01132 -19.967
LeftArm  11.4063 -0.945117 -58.7537
LeftForeArm  40.4614 1.51449 -15.6273
LeftHand  -0.0217345 5.60995 2.94694
RightShoulder  2.86838 6.35608 23.6197
RightArm  -10.4186 30.0336 66.903
RightForeArm  86.5155 -5.25417 7.46942
RightHand  0.754251 -10.7074 -16.8997
LeftUpLeg  1.6578 5.66697 3.40316
LeftLeg  8.82146 5.47743 1.60527
LeftFoot  -9.16279 0.130456 -3.97116
LeftToes  5.08156e-010 -6.90346e-011 -6.33378e-011
263
root  -17.7624 39.864 -65.8436 0.27771 -15.388 0.393372
RightUpLeg  -12.0521 -9.77611 -13.8717
RightLeg  6.96331 -16.198 -2.50792
RightFoot  -1.76036 -0.615819 7.19489
RightToes  1.218e-010 1.26228e-014 -6.01869e-014
Spine  -6.5292 2.64068 4.95728
Spine1  6.57427 2.6575 -2.1832
HEad  5.78745 -17.2564 8.741
LeftShoulder1  2.1904 -4.96483 -20.3067
LeftArm  10.1011 -0.521838 -58.8303
LeftForeArm  41.5027 3.32673 -15.6406
LeftHand  -0.0160726 5.92673 2.80987
RightShoulder  2.81323 5.92852 24.4362
RightArm  -13.4412 27.2903 64.8975
RightForeArm  87.9222 -5.0227 6.4283
RightHand  0.952795 -11.6826 -17.8847
LeftUpLeg  2.85059 6.12328 3.79456
LeftLeg  8.62153 7.97432 1.8516
LeftFoot  -9.70467 0.1331 -5.24569
LeftToes  5.08156e-010 -6.90346e-011 -6.33378e-011
264
root  -18.3844 39.7347 -65.6118 0.34375 -18.5092 0.83461
RightUpLeg  -12.7236 -9.6134 -14.6562
RightLeg  5.7711 -15.4819 -2.58518
RightFoot  -0.617948 -0.722861 7.64549
RightToes  1.218e-010 1.26228e-014 -6.01869e-014
Spine  -7.10362 2.19546 4.3409
Spine1  6.93067 2.04872 -1.48579
HEad  7.12375 -16.7956 7.88161
LeftShoulder1  2.19203 -4.84338 -20.7505
LeftArm  9.00253 -0.0691193 -58.8297
LeftForeArm  41.3344 4.78061 -15.5984
LeftHand  -0.00660879 6.36578 2.91781
RightShoulder  2.75281 5.53847 25.1263
RightArm  -18.5115 25.0899 62.5976
RightForeArm  88.9137 -4.54371 3.78297
RightHand  1.06415 -11.8661 -19.2792
LeftUpLeg  3.80551 6.45887 4.06479
LeftLeg  8.74871 10.5443 2.22306
LeftFoot  -10.2877 0.122398 -6.60822
LeftToes  5.08156e-010 -6.90346e-011 -6.33378e-011
265
root  -19.1074 39.5849 -65.3891 0.398483 -21.6506 1.29108
RightUpLeg  -13.5749 -9.7318 -15.0015
RightLeg  5.67618 -15.0092 -2.61878
RightFoot  -0.0727054 -0.698169 7.06247
RightToes  1.218e-010 1.26228e-014 -6.01869e-014
Spine  -7.48377 1.82399 3.73793
Spine1  7.11597 1.51143 -0.733247
HEad  8.35245 -16.1902 6.92096
LeftShoulder1  2.24072 -4.9018 -21.1801
LeftArm  8.18169 0.323021 -58.7043
LeftForeArm  40.3806 6.06763 -15.5471
LeftHand  -0.0108365 6.24225 2.71424
RightShoulder  2.63382 5.02569 25.6305
RightArm  -25.1569 22.7972 60.0388
RightForeArm  87.6079 -3.93293 -0.193289
RightHand  1.17947 -12.0915 -20.5348
LeftUpLeg  4.8315 6.70901 4.35099
LeftLeg  8.89172 13.1773 2.73549
LeftFoot  -10.7573 0.107319 -8.42017
LeftToes  5.08156e-010 -6.90346e-011 -6.33378e-011
266
root  -19.9452 39.4439 -65.1876 0.605255 -24.8265 1.35637
RightUpLeg  -14.3372 -9.58002 -14.2333
RightLeg  6.20452 -17.8474 -2.82228
RightFoot  0.0800155 -0.687358 6.87027
RightToes  1.218e-010 1.26228e-014 -6.01869e-014
Spine  -7.7285 1.43764 3.67039
Spine1  7.31914 0.967172 -0.101853
HEad  9.30507 -15.5696 6.1526
LeftShoulder1  2.25479 -4.8848 -21.4238
LeftArm  7.06708 0.779515 -58.3654
LeftForeArm  39.5568 6.5214 -15.4408
LeftHand  0.0026778 6.73032 3.06899
RightShoulder  2.52521 4.55207 26.1704
RightArm  -31.7978 20.3413 57.3666
RightForeArm  84.3018 -3.3666 -4.31765
RightHand  1.15663 -11.7624 -21.1449
LeftUpLeg  6.08663 7.15632 5.20874
LeftLeg  8.79387 15.5798 3.13231
LeftFoot  -10.9357 0.101689 -10.2423
LeftToes  5.08156e-010 -6.90346e-011 -6.33378e-011
267
root  -20.8967 39.3112 -65.0312 1.15511 -28.2197 1.24931
RightUpLeg  -14.8675 -9.20208 -12.4698
RightLeg  6.32012 -24.0551 -2.78697
RightFoot  -0.19325 -0.481829 4.91963
RightToes  1.218e-010 1.26228e-014 -6.01869e-014
Spine  -7.84302 1.11456 3.68727
Spine1  7.22045 0.458309 0.73184
HEad  10.2762 -14.6647 5.25239
LeftShoulder1  2.26364 -4.87657 -21.5686
LeftArm  6.02502 1.72016 -57.7598
LeftForeArm  39.0472 6.71094 -15.2905
LeftHand  0.00051674 6.70327 2.94364
RightShoulder  2.3862 4.0426 26.5122
RightArm  -37.6638 17.7729 55.0288
RightForeArm  79.7097 -2.91578 -7.99752
RightHand  1.19809 -11.7552 -21.8699
LeftUpLeg  7.10606 7.75912 6.41666
LeftLeg  8.92948 17.7505 3.43325
LeftFoot  -10.8293 0.122326 -12.8645
LeftToes  5.08156e-010 -6.90346e-011 -6.33378e-011
268
root  -21.9362 39.3397 -64.885 1.95378 -31.5694 0.801071
RightUpLeg  -15.0335 -7.02851 -10.2695
RightLeg  6.174 -29.2676 -3.75478
RightFoot  2.32785 -0.716508 6.10478
RightToes  1.218e-010 1.26228e-014 -6.01869e-014
Spine  -8.11517 0.917295 4.47271
Spine1  7.55495 -0.0717709 1.98511
HEad  10.8749 -13.4935 4.33954
LeftShoulder1  2.28491 -4.93845 -21.6225
LeftArm  4.55137 2.50518 -56.9514
LeftForeArm  39.0292 6.93352 -15.0508
LeftHand  -0.00324085 6.41836 3.14636
RightShoulder  2.26292 3.63485 26.6409
RightArm  -42.1546 15.0767 53.0396
RightForeArm  76.8441 -2.53902 -10.7747
RightHand  1.06665 -10.8496 -22.6814
LeftUpLeg  8.71278 8.1118 7.85679
LeftLeg  7.81589 20.1488 3.5211
LeftFoot  -9.0461 0.377937 -16.0839
LeftToes  5.08156e-010 -6.90346e-011 -6.33378e-011
